HIERARCHY
ROOT Hips
{
	OFFSET 0.00000 0.00000 0.00000
	CHANNELS 6 Xposition Yposition Zposition Zrotation Yrotation Xrotation 
	JOINT LHipJoint
	{
		OFFSET 0 0 0
		CHANNELS 3 Zrotation Yrotation Xrotation
		JOINT LeftUpLeg
		{
			OFFSET 1.55766 -1.60504 1.11378
			CHANNELS 3 Zrotation Yrotation Xrotation
			JOINT LeftLeg
			{
				OFFSET 2.29047 -6.29302 0.00000
				CHANNELS 3 Zrotation Yrotation Xrotation
				JOINT LeftFoot
				{
					OFFSET 2.52265 -6.93093 0.00000
					CHANNELS 3 Zrotation Yrotation Xrotation
					JOINT LeftToeBase
					{
						OFFSET 0.17633 -0.48446 2.02656
						CHANNELS 3 Zrotation Yrotation Xrotation
						End Site
						{
							OFFSET 0.00000 -0.00000 1.04989
						}
					}
				}
			}
		}
	}
	JOINT RHipJoint
	{
		OFFSET 0 0 0
		CHANNELS 3 Zrotation Yrotation Xrotation
		JOINT RightUpLeg
		{
			OFFSET -1.48599 -1.60504 1.11378
			CHANNELS 3 Zrotation Yrotation Xrotation
			JOINT RightLeg
			{
				OFFSET -2.27280 -6.24448 0.00000
				CHANNELS 3 Zrotation Yrotation Xrotation
				JOINT RightFoot
				{
					OFFSET -2.50834 -6.89161 0.00000
					CHANNELS 3 Zrotation Yrotation Xrotation
					JOINT RightToeBase
					{
						OFFSET -0.26967 -0.74090 2.08741
						CHANNELS 3 Zrotation Yrotation Xrotation
						End Site
						{
							OFFSET -0.00000 -0.00000 1.10614
						}
					}
				}
			}
		}
	}
	JOINT LowerBack
	{
		OFFSET 0 0 0
		CHANNELS 3 Zrotation Yrotation Xrotation
		JOINT Spine
		{
			OFFSET 0.06481 2.02437 -0.08472
			CHANNELS 3 Zrotation Yrotation Xrotation
			JOINT Spine1
			{
				OFFSET 0.00015 1.96711 0.18069
				CHANNELS 3 Zrotation Yrotation Xrotation
				JOINT Neck
				{
					OFFSET 0 0 0
					CHANNELS 3 Zrotation Yrotation Xrotation
					JOINT Neck1
					{
						OFFSET -0.29961 1.68293 -0.13041
						CHANNELS 3 Zrotation Yrotation Xrotation
						JOINT Head
						{
							OFFSET 0.59697 1.61501 -0.14669
							CHANNELS 3 Zrotation Yrotation Xrotation
							End Site
							{
								OFFSET 0.22973 1.74906 -0.10148
							}
						}
					}
				}
				JOINT LeftShoulder
				{
					OFFSET 0 0 0
					CHANNELS 3 Zrotation Yrotation Xrotation
					JOINT LeftArm
					{
						OFFSET 3.37968 1.02893 0.31147
						CHANNELS 3 Zrotation Yrotation Xrotation
						JOINT LeftForeArm
						{
							OFFSET 5.19807 -0.00000 -0.00000
							CHANNELS 3 Zrotation Yrotation Xrotation
							JOINT LeftHand
							{
								OFFSET 3.09370 -0.00000 -0.00000
								CHANNELS 3 Zrotation Yrotation Xrotation
								JOINT LeftFingerBase
								{
									OFFSET 0 0 0
									CHANNELS 3 Zrotation Yrotation Xrotation
									JOINT LeftHandIndex1
									{
										OFFSET 0.67263 -0.00000 -0.00000
										CHANNELS 3 Zrotation Yrotation Xrotation
										End Site
										{
											OFFSET 0.54229 -0.00000 -0.00000
										}
									}
								}
								JOINT LThumb
								{
									OFFSET 0 0 0
									CHANNELS 3 Zrotation Yrotation Xrotation
									End Site
									{
										OFFSET 0.55057 -0.00000 0.55057
									}
								}
							}
						}
					}
				}
				JOINT RightShoulder
				{
					OFFSET 0 0 0
					CHANNELS 3 Zrotation Yrotation Xrotation
					JOINT RightArm
					{
						OFFSET -3.38254 0.96355 -0.16120
						CHANNELS 3 Zrotation Yrotation Xrotation
						JOINT RightForeArm
						{
							OFFSET -5.45222 -0.00000 -0.00000
							CHANNELS 3 Zrotation Yrotation Xrotation
							JOINT RightHand
							{
								OFFSET -3.01284 -0.00000 -0.00000
								CHANNELS 3 Zrotation Yrotation Xrotation
								JOINT RightFingerBase
								{
									OFFSET 0 0 0
									CHANNELS 3 Zrotation Yrotation Xrotation
									JOINT RightHandIndex1
									{
										OFFSET -0.62230 -0.00000 -0.00000
										CHANNELS 3 Zrotation Yrotation Xrotation
										End Site
										{
											OFFSET -0.50171 -0.00000 -0.00000
										}
									}
								}
								JOINT RThumb
								{
									OFFSET 0 0 0
									CHANNELS 3 Zrotation Yrotation Xrotation
									End Site
									{
										OFFSET -0.50937 -0.00000 0.50937
									}
								}
							}
						}
					}
				}
			}
		}
	}
}
MOTION
Frames: 10
Frame Time: 0.0377358
0.00 0.00 0.00 -171.7330 16.0934 -158.8370 0.0000 0.0000 0.0000 -8.0730 -12.0212 -45.8063 3.5069 11.4736 33.8943 0.0354 -3.3574 -3.8182 4.1135 -12.3099 -36.8372 0.0000 0.0000 0.0000 24.2613 4.4194 0.4675 -3.1919 -10.9993 32.2777 0.0249 14.1036 19.7545 -1.4460 7.6016 -21.5104 9.7306 3.8047 -7.2713 2.0449 6.2126 -9.7380 -3.1245 3.1318 -5.5765 -32.0591 -10.6066 13.6651 31.6415 -19.0824 5.2958 15.6409 -10.2623 5.9228 0.0000 0.0000 0.0000 -85.6195 17.6672 31.4344 21.2766 -32.1498 -6.1965 -0.0000 0.0000 -33.9092 12.9510 -5.6720 -1.3020 -7.1250 0.0000 -0.0000 -10.1959 24.1677 5.2074 0.0000 0.0000 0.0000 88.8212 -14.2624 0.8657 -11.5348 19.1033 -1.9474 0.0000 0.0000 33.9824 1.1479 -7.0798 -0.1415 7.1250 -0.0000 -0.0000 -32.2852 53.5278 172.6286
0.00 0.00 0.00 -173.2330 17.6879 -160.1310 0.0000 0.0000 0.0000 -10.8998 -11.1046 -42.5421 3.1982 11.0092 32.3109 0.0832 -2.9479 -5.2152 3.7312 -11.7939 -35.0066 0.0000 0.0000 0.0000 22.2243 7.1354 -5.0649 -7.1874 -15.4877 49.5797 0.2495 15.9966 20.0330 -1.6727 8.1483 -23.1653 7.7556 3.9136 -6.1378 1.7592 6.3194 -9.3651 -2.4215 3.2149 -5.8805 -31.7408 -10.6274 13.7511 32.2911 -19.0227 4.7857 15.8951 -10.2288 5.7911 -0.0000 -0.0000 0.0000 -84.4869 16.3083 33.1645 23.7800 -34.9307 -7.5802 -0.0000 0.0000 -36.1222 14.7374 -7.3244 -1.9207 -7.1250 0.0000 -0.0000 -8.8006 22.4361 4.8314 -0.0000 -0.0000 0.0000 88.1313 -13.6574 5.1845 -12.4753 20.5136 -2.2661 0.0000 0.0000 31.2022 1.9501 -6.0010 -0.2040 7.1250 -0.0000 -0.0000 -34.0985 54.4532 171.3186
0.00 0.00 0.00 -175.8140 19.2254 -162.0680 0.0000 0.0000 0.0000 -14.9807 -9.7424 -38.9180 2.7698 10.3128 29.9957 0.1155 -3.0453 -6.0858 3.9497 -12.0932 -36.0624 0.0000 0.0000 0.0000 19.1088 9.3712 -10.6194 -12.3930 -18.5519 67.2292 0.3984 17.6958 21.1665 -1.7513 8.3277 -23.7138 4.8197 3.8606 -4.6955 1.0866 6.1267 -8.9012 -1.6212 3.1734 -6.3456 -31.3983 -10.6411 13.7710 33.0350 -18.9438 4.3979 16.2001 -10.1777 5.7133 -0.0000 -0.0000 0.0000 -83.0125 14.8673 34.4118 26.4420 -37.6418 -9.1562 -0.0000 0.0000 -38.2359 16.2248 -9.8342 -2.8454 -7.1250 0.0000 -0.0000 -7.6620 19.7918 4.6565 -0.0000 -0.0000 0.0000 87.8532 -12.7808 9.2983 -13.8386 22.5034 -2.7660 0.0000 0.0000 28.5731 1.6643 -4.4031 -0.1278 7.1250 -0.0000 -0.0000 -35.0394 55.7671 169.8517
0.00 0.00 0.00 -180.6240 20.2191 -165.1700 0.0000 0.0000 0.0000 -21.7221 -7.5018 -34.3310 2.1360 9.1437 26.2460 0.1319 -4.5670 -6.7480 4.0479 -12.2239 -36.5286 0.0000 0.0000 0.0000 13.2803 10.2906 -18.7114 -19.8905 -19.9997 89.6799 0.5451 18.8794 21.6244 -1.9575 8.7769 -25.1000 -0.1461 3.3763 -2.7279 -0.2228 5.1819 -8.1933 -0.3617 2.8525 -7.0065 -31.0176 -10.6095 13.5810 34.0529 -18.7458 3.9486 16.6465 -10.0532 5.6484 0.0000 0.0000 0.0000 -80.9377 12.6299 34.8146 29.8124 -40.7321 -11.2870 -0.0000 0.0000 -40.3265 17.2575 -13.2057 -4.0593 -7.1250 0.0000 -0.0000 -6.9384 16.2409 4.7564 0.0000 0.0000 0.0000 88.1759 -11.1420 13.2359 -16.0766 25.6244 -3.6790 0.0000 0.0000 25.6682 -1.0601 -2.3616 0.0437 7.1250 -0.0000 -0.0000 -33.1633 57.4805 169.0643
0.00 0.00 0.00 -182.7720 19.5776 -166.8480 0.0000 0.0000 0.0000 -25.1538 -5.2980 -31.5750 1.8005 8.4375 24.0510 0.1416 -6.8481 -7.6921 3.8267 -11.9261 -35.4712 0.0000 0.0000 0.0000 10.0037 9.6543 -27.5704 -26.1746 -19.0602 108.3296 0.8427 20.0822 20.5094 -2.2054 9.2815 -26.6799 -2.2500 2.6475 -1.2873 -0.8547 3.9799 -7.6067 0.1267 2.3082 -7.2985 -30.8380 -10.4591 13.2745 34.8250 -18.4023 3.5421 17.0368 -9.8631 5.5487 0.0000 0.0000 0.0000 -79.1930 10.2413 33.6662 32.3513 -42.8255 -12.9790 -0.0000 0.0000 -41.4593 17.5901 -15.3283 -4.7906 -7.1250 0.0000 -0.0000 -6.7555 14.0171 4.9533 0.0000 0.0000 0.0000 89.0262 -9.3812 15.6517 -18.6221 28.9465 -4.8466 0.0000 0.0000 22.6459 -5.8588 -1.5287 0.1568 7.1250 -0.0000 -0.0000 -27.3528 58.2913 170.6565
0.00 0.00 0.00 -183.5380 17.6352 -168.4970 0.0000 0.0000 0.0000 -27.2706 -2.2386 -27.9999 1.4916 7.7154 21.8528 0.1043 -10.3797 -8.8485 3.2268 -11.0534 -32.4603 0.0000 0.0000 0.0000 7.4740 6.5995 -40.8690 -32.0770 -16.0623 127.7152 1.7642 23.1444 13.7529 -2.5803 9.9824 -28.9197 -2.6065 1.5436 0.4619 -1.1545 2.2775 -6.7037 0.0727 1.4069 -7.2985 -30.6753 -10.1567 12.8954 35.0962 -17.8428 3.1252 17.2063 -9.5758 5.2999 0.0000 -0.0000 0.0000 -77.5900 6.8355 30.3470 34.1061 -44.1632 -14.1869 -0.0000 0.0000 -42.8177 17.8167 -15.4915 -4.9063 -7.1250 0.0000 -0.0000 -6.6074 13.8257 4.8702 0.0000 -0.0000 0.0000 90.5061 -7.3709 18.0488 -22.5650 33.6097 -6.8960 0.0000 0.0000 15.9807 -14.2143 -1.7238 0.4366 7.1250 -0.0000 -0.0000 -16.0983 58.1900 174.7162
0.00 0.00 0.00 -185.3600 13.9886 -171.5890 0.0000 0.0000 0.0000 -30.4207 1.2457 -21.3344 1.0518 6.5215 18.3052 -0.1104 -14.1147 -8.5457 2.6398 -10.0878 -29.2615 0.0000 0.0000 0.0000 6.6673 4.6291 -56.0782 -34.3747 -14.0551 136.5412 0.6836 17.0912 -3.4615 -2.5447 9.9187 -28.7140 -4.1078 0.1499 3.3994 -1.4723 0.0412 -5.3141 0.7401 0.3007 -7.4713 -30.9198 -10.1023 12.8408 34.7650 -17.8258 2.7934 17.0593 -9.6125 5.1822 0.0000 -0.0000 0.0000 -77.5132 1.8509 26.8562 32.6774 -43.0806 -13.2012 -0.0000 0.0000 -47.2585 21.8051 -12.2399 -4.8481 -7.1250 0.0000 -0.0000 -3.7651 16.8465 2.5178 0.0000 -0.0000 0.0000 90.6056 -6.5927 22.5322 -28.7724 39.8176 -10.6146 0.0000 0.0000 7.4655 -17.8955 -4.0624 1.3104 7.1250 -0.0000 -0.0000 -10.6024 55.7728 177.1746
0.00 0.00 0.00 -185.7390 9.3388 -173.3690 0.0000 0.0000 0.0000 -30.6679 -1.1298 -15.5668 1.1840 6.9056 19.4360 0.2661 -12.1747 -11.7983 4.0793 -12.2652 -36.6767 0.0000 0.0000 0.0000 8.2469 14.0180 -63.0196 -30.6415 -17.0330 122.6780 -0.4300 6.6201 -11.8675 -2.3830 9.6219 -27.7609 -5.1664 -0.8948 5.2826 -1.0796 -1.5871 -4.3881 1.9373 -0.4780 -7.4702 -31.1788 -10.2864 13.6992 34.6169 -18.2978 2.3574 16.9879 -9.9505 5.0886 0.0000 0.0000 0.0000 -79.6124 -1.1799 27.3311 29.2500 -40.2418 -10.9219 -0.0000 0.0000 -48.3096 24.6134 -11.4895 -5.2139 -7.1250 0.0000 -0.0000 -1.7720 17.3808 1.1623 0.0000 0.0000 0.0000 88.3948 -6.6232 25.4661 -29.9286 40.8321 -11.3629 0.0000 0.0000 8.6126 -14.6428 -0.9939 0.2597 7.1250 -0.0000 -0.0000 -15.8615 58.9167 174.5182
0.00 0.00 0.00 -185.0610 6.8563 -173.1990 0.0000 0.0000 0.0000 -29.7090 -3.2656 -14.4368 1.5714 7.9096 22.4398 0.6161 -10.5104 -14.7960 5.1401 -13.5399 -41.4247 0.0000 0.0000 0.0000 8.1794 17.9057 -63.4384 -25.8680 -19.1536 107.3929 -0.6033 2.6469 -14.0068 -2.6135 10.0413 -29.1107 -5.0632 -1.3599 4.9608 -0.6285 -2.1644 -4.1795 2.4066 -0.7794 -7.0036 -31.2437 -10.4997 14.1973 34.6370 -18.7165 2.2727 16.9632 -10.2041 5.1460 0.0000 0.0000 0.0000 -81.1671 -1.1848 29.0107 27.7137 -38.8513 -9.9436 -0.0000 0.0000 -46.6986 23.5742 -11.3555 -4.9106 -7.1250 0.0000 -0.0000 -2.4925 17.6279 1.6222 0.0000 0.0000 0.0000 87.2281 -6.3909 25.7393 -27.4233 38.5798 -9.7619 0.0000 0.0000 10.4634 -12.3489 0.0692 -0.0152 7.1250 -0.0000 -0.0000 -19.5497 59.9190 172.7149
0.00 0.00 0.00 -183.7770 4.9021 -172.7240 0.0000 0.0000 0.0000 -28.1158 -4.7688 -13.7444 1.9916 8.8485 25.3226 0.9558 -8.9671 -17.6181 5.7627 -14.1944 -44.0218 0.0000 0.0000 0.0000 8.5653 20.5385 -60.6386 -19.1103 -19.9810 87.3979 -0.5686 0.7228 -14.0150 -2.6050 10.0264 -29.0622 -4.1775 -1.6152 4.5855 -0.1297 -2.3941 -4.2057 2.4458 -0.9326 -6.8045 -31.1851 -10.7910 14.5462 34.6729 -19.1832 2.2014 16.8973 -10.4603 5.2411 0.0000 0.0000 0.0000 -82.5766 0.3195 30.9846 26.9293 -38.1117 -9.4555 -0.0000 0.0000 -43.1084 19.9042 -10.9752 -3.9434 -7.1250 0.0000 -0.0000 -5.0593 18.3522 3.2216 0.0000 0.0000 0.0000 86.5761 -6.0589 24.5416 -23.5057 34.6372 -7.4238 0.0000 0.0000 12.3899 -10.1363 -0.5869 0.1049 7.1250 -0.0000 -0.0000 -22.1915 59.2423 172.0363
